<?xml version="1.0" encoding="UTF-8" standalone="no"?>
<svg
   xmlns:dc="http://purl.org/dc/elements/1.1/"
   xmlns:cc="http://creativecommons.org/ns#"
   xmlns:rdf="http://www.w3.org/1999/02/22-rdf-syntax-ns#"
   xmlns:svg="http://www.w3.org/2000/svg"
   xmlns="http://www.w3.org/2000/svg"
   xmlns:sodipodi="http://sodipodi.sourceforge.net/DTD/sodipodi-0.dtd"
   xmlns:inkscape="http://www.inkscape.org/namespaces/inkscape"
   version="1.1"
   x="0px"
   y="0px"
   viewBox="0 0 200 200"
   enable-background="new 0 0 100 100"
   xml:space="preserve"
   id="svg2"
   inkscape:version="0.91 r13725"
   sodipodi:docname="gear.svg"
   width="200"
   height="200"
   inkscape:export-filename="/Applications/MAMP/htdocs/ultiflow/images/gear.png"
   inkscape:export-xdpi="14.4"
   inkscape:export-ydpi="14.4"><metadata
     id="metadata10"><rdf:RDF><cc:Work
         rdf:about=""><dc:format>image/svg+xml</dc:format><dc:type
           rdf:resource="http://purl.org/dc/dcmitype/StillImage" /><dc:title></dc:title></cc:Work></rdf:RDF></metadata><defs
     id="defs8" /><sodipodi:namedview
     pagecolor="#ffffff"
     bordercolor="#666666"
     borderopacity="1"
     objecttolerance="10"
     gridtolerance="10"
     guidetolerance="10"
     inkscape:pageopacity="0"
     inkscape:pageshadow="2"
     inkscape:window-width="1280"
     inkscape:window-height="699"
     id="namedview6"
     showgrid="false"
     inkscape:zoom="2.36"
     inkscape:cx="50"
     inkscape:cy="151.69492"
     inkscape:window-x="0"
     inkscape:window-y="0"
     inkscape:window-maximized="1"
     inkscape:current-layer="svg2" /><path
     d="m 145.784,109.059 c 1.867,0 3.604,-1.514 3.858,-3.364 0,0 0.357,-2.6 0.357,-5.692 0,-3.092 -0.357,-5.692 -0.357,-5.692 -0.255,-1.851 -1.991,-3.364 -3.858,-3.364 l -9.648,0 c -1.868,0 -3.808,-1.191 -4.31,-2.646 -0.502,-1.455 -1.193,-6.123 0.128,-7.443 l 6.82,-6.82 c 1.32,-1.321 1.422,-3.575 0.226,-5.01 l -8.024,-8.026 c -1.435,-1.197 -3.688,-1.095 -5.01,0.226 l -6.82,6.82 c -1.32,1.321 -3.521,1.853 -4.888,1.183 -1.368,-0.67 -5.201,-3.496 -5.201,-5.364 l 0,-9.648 c 0,-1.868 -1.514,-3.604 -3.364,-3.859 0,0 -2.6,-0.358 -5.692,-0.358 -3.092,0 -5.692,0.358 -5.692,0.358 -1.851,0.254 -3.365,1.991 -3.365,3.859 l 0,9.648 c 0,1.868 -1.19,3.807 -2.646,4.31 -1.456,0.502 -6.123,1.193 -7.444,-0.128 l -6.82,-6.82 C 72.713,59.908 70.459,59.806 69.025,61.002 L 61,69.027 c -1.197,1.435 -1.095,3.689 0.226,5.01 l 6.819,6.82 c 1.321,1.321 1.854,3.521 1.183,4.888 -0.671,1.367 -3.496,5.201 -5.364,5.201 l -9.647,0 c -1.868,0 -3.604,1.514 -3.859,3.364 0,0 -0.358,2.6 -0.358,5.692 0,3.093 0.358,5.692 0.358,5.692 0.254,1.851 1.991,3.364 3.859,3.364 l 9.648,0 c 1.868,0 3.807,1.19 4.309,2.646 0.502,1.455 1.193,6.122 -0.128,7.443 l -6.819,6.819 c -1.321,1.321 -1.423,3.575 -0.226,5.01 l 8.024,8.026 c 1.435,1.196 3.688,1.095 5.009,-0.226 l 6.82,-6.82 c 1.321,-1.32 3.521,-1.853 4.889,-1.183 1.368,0.67 5.201,3.496 5.201,5.364 l 0,9.648 c 0,1.867 1.514,3.604 3.365,3.858 0,0 2.599,0.357 5.692,0.357 3.093,0 5.692,-0.357 5.692,-0.357 1.851,-0.255 3.364,-1.991 3.364,-3.858 l 0,-9.648 c 0,-1.868 1.19,-3.808 2.646,-4.31 1.456,-0.502 6.123,-1.192 7.444,0.128 l 6.819,6.82 c 1.321,1.32 3.575,1.422 5.01,0.226 L 139,130.978 c 1.196,-1.435 1.095,-3.688 -0.227,-5.01 l -6.819,-6.819 c -1.321,-1.321 -1.854,-3.521 -1.183,-4.889 0.67,-1.368 3.496,-5.201 5.364,-5.201 l 9.649,0 z M 100,118.304 c -10.108,0 -18.302,-8.193 -18.302,-18.302 0,-10.107 8.194,-18.302 18.302,-18.302 10.108,0 18.302,8.194 18.302,18.302 0,10.108 -8.194,18.302 -18.302,18.302 z"
     id="path4"
     inkscape:connector-curvature="0"
     style="fill:#000000" /></svg>