<?xml version="1.0" encoding="UTF-8" standalone="no"?>
<svg
   xmlns:dc="http://purl.org/dc/elements/1.1/"
   xmlns:cc="http://creativecommons.org/ns#"
   xmlns:rdf="http://www.w3.org/1999/02/22-rdf-syntax-ns#"
   xmlns:svg="http://www.w3.org/2000/svg"
   xmlns="http://www.w3.org/2000/svg"
   xmlns:sodipodi="http://sodipodi.sourceforge.net/DTD/sodipodi-0.dtd"
   xmlns:inkscape="http://www.inkscape.org/namespaces/inkscape"
   version="1.1"
   x="0px"
   y="0px"
   viewBox="0 0 200 200"
   enable-background="new 0 0 100 100"
   xml:space="preserve"
   id="svg2"
   inkscape:version="0.91 r13725"
   sodipodi:docname="gear_combination.svg"
   width="200"
   height="200"
   inkscape:export-filename="/Applications/MAMP/htdocs/ultiflow/images/gear.png"
   inkscape:export-xdpi="14.4"
   inkscape:export-ydpi="14.4"><metadata
     id="metadata10"><rdf:RDF><cc:Work
         rdf:about=""><dc:format>image/svg+xml</dc:format><dc:type
           rdf:resource="http://purl.org/dc/dcmitype/StillImage" /><dc:title></dc:title></cc:Work></rdf:RDF></metadata><defs
     id="defs8" /><sodipodi:namedview
     pagecolor="#ffffff"
     bordercolor="#666666"
     borderopacity="1"
     objecttolerance="10"
     gridtolerance="10"
     guidetolerance="10"
     inkscape:pageopacity="0"
     inkscape:pageshadow="2"
     inkscape:window-width="1280"
     inkscape:window-height="699"
     id="namedview6"
     showgrid="false"
     inkscape:zoom="1.668772"
     inkscape:cx="7.847626"
     inkscape:cy="97.405574"
     inkscape:window-x="0"
     inkscape:window-y="0"
     inkscape:window-maximized="1"
     inkscape:current-layer="svg2" /><path
     d="m 137.04735,121.36888 c 0.90513,0 1.74722,0.734 1.87037,1.63088 0,0 0.17308,1.26049 0.17308,2.75951 0,1.49902 -0.17308,2.75951 -0.17308,2.75951 -0.12363,0.89738 -0.96524,1.63088 -1.87037,1.63088 l -4.67737,0 c -0.90562,0 -1.84615,0.57741 -2.08952,1.2828 -0.24337,0.70539 -0.57836,2.96846 0.0621,3.6084 l 3.30636,3.30637 c 0.63995,0.64043 0.68941,1.73318 0.10957,2.42887 l -3.89006,3.89105 c -0.69569,0.58031 -1.78795,0.53086 -2.42887,-0.10956 l -3.30636,-3.30638 c -0.63993,-0.64043 -1.70699,-0.89834 -2.36972,-0.57352 -0.66322,0.32482 -2.52146,1.69488 -2.52146,2.60049 l 0,4.6774 c 0,0.90562 -0.73399,1.74724 -1.63088,1.87087 0,0 -1.26049,0.17355 -2.7595,0.17355 -1.49902,0 -2.7595,-0.17355 -2.7595,-0.17355 -0.89738,-0.12315 -1.63137,-0.96525 -1.63137,-1.87087 l 0,-4.6774 c 0,-0.90561 -0.57691,-1.84566 -1.28279,-2.08951 -0.70587,-0.24336 -2.96845,-0.57837 -3.60887,0.0621 l -3.30636,3.30637 c -0.64042,0.64043 -1.73317,0.68988 -2.428376,0.11004 l -3.890552,-3.89055 c -0.580305,-0.6957 -0.530852,-1.78845 0.109563,-2.42888 l 3.305883,-3.30637 c 0.640416,-0.64041 0.898822,-1.707 0.57352,-2.36971 -0.3253,-0.66273 -1.694878,-2.52148 -2.600488,-2.52148 l -4.676888,0 c -0.905618,0 -1.747238,-0.73399 -1.870864,-1.63089 0,0 -0.173563,-1.26048 -0.173563,-2.7595 0,-1.4995 0.173563,-2.75951 0.173563,-2.75951 0.123137,-0.89737 0.965246,-1.63089 1.870864,-1.63089 l 4.677377,0 c 0.905611,0 1.845645,-0.57692 2.089014,-1.2828 0.243376,-0.70538 0.578367,-2.96798 -0.06208,-3.6084 l -3.305869,-3.30589 c -0.64043,-0.64042 -0.689882,-1.73318 -0.109565,-2.42888 l 3.890062,-3.89104 c 0.695689,-0.57983 1.787959,-0.53086 2.428379,0.10957 l 3.30636,3.30637 c 0.64043,0.63994 1.70699,0.89834 2.37021,0.57352 0.66321,-0.32482 2.52145,-1.69487 2.52145,-2.60049 l 0,-4.6774 c 0,-0.90514 0.73399,-1.74724 1.63137,-1.87037 0,0 1.26,-0.17308 2.75949,-0.17308 1.49951,0 2.75951,0.17308 2.75951,0.17308 0.89737,0.12362 1.63087,0.96523 1.63087,1.87037 l 0,4.6774 c 0,0.90562 0.57691,1.84614 1.2828,2.08951 0.70586,0.24337 2.96846,0.57789 3.60888,-0.0621 l 3.30588,-3.30637 c 0.64041,-0.63993 1.73316,-0.68938 2.42885,-0.10957 l 3.89007,3.88959 c 0.57982,0.6957 0.53086,1.78797 -0.11006,2.42888 l -3.30587,3.30589 c -0.64043,0.64042 -0.89882,1.707 -0.57352,2.37022 0.32482,0.66321 1.69487,2.52147 2.60049,2.52147 z"
     id="path4"
     inkscape:connector-curvature="0"
     style="fill:#000000"
     sodipodi:nodetypes="scscssscccccccsscscsscssccccssscscsscssccscssscscsssccccsscss" /><path
     sodipodi:nodetypes="scscssscccccccsscscsscssccccssscscsscssccscssscscsssccccsscss"
     style="fill:#000000"
     inkscape:connector-curvature="0"
     id="path4172"
     d="m 102.40593,96.852735 c 0.87803,0.219774 1.51671,1.136286 1.41838,2.03623 0,0 -0.13816,1.264795 -0.50216,2.718955 -0.36398,1.45415 -0.83795,2.63489 -0.83795,2.63489 -0.33782,0.84051 -1.33237,1.34769 -2.2104,1.12791 l -4.537396,-1.13576 c -0.878512,-0.2199 -1.931087,0.11186 -2.338456,0.73703 -0.407369,0.6252 -1.281858,2.73918 -0.815976,3.51549 l 2.404555,4.01026 c 0.465287,0.77665 0.247919,1.8487 -0.483483,2.38279 l -4.71846,2.83001 c -0.815781,0.39401 -1.863341,0.0808 -2.32957,-0.69606 l -2.404554,-4.01027 c -0.465284,-0.77665 -1.437777,-1.28596 -2.15954,-1.13178 -0.722235,0.15406 -2.857544,1.03189 -3.077443,1.9104 l -1.135759,4.53743 c -0.219898,0.87851 -1.136288,1.51671 -2.036356,1.41885 0,0 -1.264904,-0.13771 -2.719048,-0.50169 -1.454155,-0.364 -2.634775,-0.83843 -2.634775,-0.83843 -0.840618,-0.33735 -1.348159,-1.33249 -1.12826,-2.21099 l 1.135757,-4.53742 c 0.2199,-0.87851 -0.11149,-1.9305 -0.73703,-2.33846 -0.625649,-0.40749 -2.739168,-1.28186 -3.515939,-0.8161 l -4.010248,2.40458 c -0.776761,0.46575 -1.848818,0.24837 -2.382425,-0.48291 l -2.829414,-4.71883 c -0.394011,-0.81578 -0.0807,-1.86381 0.696061,-2.32957 l 4.009785,-2.40469 c 0.776758,-0.46575 1.286414,-1.437652 1.131768,-2.159537 -0.154644,-0.721886 -1.031897,-2.857549 -1.910401,-3.07745 l -4.536923,-1.13564 c -0.878515,-0.219911 -1.516715,-1.136296 -1.418863,-2.036367 0,0 0.137706,-1.264901 0.501696,-2.719063 0.364104,-1.454612 0.838421,-2.634778 0.838421,-2.634778 0.337354,-0.840611 1.332366,-1.347697 2.21088,-1.127796 l 4.537394,1.135757 c 0.878505,0.219901 1.930492,-0.111488 2.337978,-0.737142 0.407376,-0.625175 1.281742,-2.738723 0.815976,-3.51549 L 64.629551,78.947413 C 64.163794,78.17065 64.381162,77.09859 65.113039,76.564628 l 4.718455,-2.830004 c 0.815665,-0.39355 1.863343,-0.08083 2.329097,0.695945 l 2.404557,4.010261 c 0.465871,0.776301 1.437775,1.285947 2.160009,1.131892 0.722235,-0.154056 2.857543,-1.031891 3.077445,-1.910408 l 1.135755,-4.537409 c 0.219783,-0.878047 1.136282,-1.516724 2.0367,-1.418271 0,0 1.264318,0.138051 2.718934,0.502158 1.454625,0.364109 2.634889,0.837962 2.634889,0.837962 0.840493,0.337818 1.34769,1.33236 1.127907,2.210407 l -1.135756,4.53741 c -0.2199,0.878517 0.111373,1.930979 0.73703,2.338466 0.625649,0.407486 2.739295,1.281393 3.515941,0.816095 l 4.009786,-2.404689 c 0.776643,-0.465278 1.848686,-0.24791 2.382769,0.483487 l 2.829173,4.717774 c 0.39356,0.815659 0.0808,1.863352 -0.69653,2.329447 l -4.009656,2.404223 c -0.776768,0.465752 -1.286414,1.437661 -1.131889,2.160027 0.154056,0.722238 1.031888,2.857549 1.9104,3.07745 z" /><path
     sodipodi:nodetypes="scscssscccccccsscscsscssccccssscscsscssccscssscscsssccccsscss"
     style="fill:#000000"
     inkscape:connector-curvature="0"
     id="path4176"
     d="m 141.92846,68.726013 c 0.90397,-0.04583 1.78215,0.644592 1.95055,1.534091 0,0 0.23668,1.250112 0.31258,2.74721 0.076,1.497089 -0.0331,2.764728 -0.0331,2.764728 -0.0779,0.902487 -0.88143,1.677662 -1.78539,1.723491 l -4.67138,0.236823 c -0.90446,0.04586 -1.81455,0.670144 -2.02188,1.386947 -0.20733,0.716813 -0.42732,2.993934 0.24469,3.600633 l 3.46951,3.134719 c 0.67156,0.607209 0.77627,1.69605 0.23241,2.420211 l -3.68807,4.083019 c -0.66542,0.614787 -1.75878,0.620702 -2.4313,0.01354 l -3.46954,-3.134726 c -0.67154,-0.607198 -1.75029,-0.810761 -2.39573,-0.452805 -0.6459,0.357991 -2.4324,1.820376 -2.38655,2.724826 l 0.23683,4.671404 c 0.0458,0.90445 -0.6446,1.782155 -1.53408,1.951037 0,0 -1.25008,0.237157 -2.74717,0.313049 -1.49709,0.0759 -2.76475,-0.03362 -2.76475,-0.03362 -0.90245,-0.07755 -1.67814,-0.88141 -1.724,-1.785861 l -0.23686,-4.671399 c -0.0458,-0.904451 -0.66962,-1.814072 -1.38694,-2.021877 -0.71728,-0.207318 -2.99392,-0.427334 -3.60109,0.244713 l -3.13472,3.469532 c -0.60717,0.672036 -1.69602,0.776752 -2.41968,0.232863 l -4.08256,-3.68859 c -0.61478,-0.665421 -0.62072,-1.75927 -0.0135,-2.431305 l 3.13424,-3.469509 c 0.60718,-0.672025 0.81125,-1.750313 0.45281,-2.395721 -0.35845,-0.645406 -1.82037,-2.43242 -2.72482,-2.386566 l -4.6709,0.236798 c -0.904452,0.04585 -1.782154,-0.644591 -1.951035,-1.534075 0,0 -0.237153,-1.250078 -0.313051,-2.747177 -0.07592,-1.497574 0.03362,-2.764761 0.03362,-2.764761 0.07755,-0.902454 0.881434,-1.677663 1.785889,-1.723516 l 4.671387,-0.236823 c 0.90444,-0.04585 1.81406,-0.669625 2.02137,-1.386924 0.20736,-0.716801 0.42737,-2.993461 -0.24468,-3.600634 l -3.46902,-3.134268 c -0.672039,-0.607174 -0.776749,-1.696025 -0.2324,-2.420209 l 3.68807,-4.08301 c 0.66544,-0.614313 1.75878,-0.620712 2.43081,-0.01352 l 3.46952,3.134721 c 0.67201,0.606698 1.75029,0.810761 2.3962,0.45278 0.64592,-0.35798 2.43241,-1.820367 2.38655,-2.724826 l -0.23682,-4.671396 c -0.0458,-0.903975 0.64458,-1.782165 1.53458,-1.950575 0,0 1.24962,-0.236655 2.74719,-0.312577 1.49758,-0.07592 2.76472,0.03314 2.76472,0.03314 0.90248,0.07803 1.67767,0.881427 1.7235,1.785402 l 0.23682,4.671396 c 0.0458,0.904461 0.66963,1.814568 1.38693,2.021886 0.71729,0.207319 2.99391,0.42685 3.60111,-0.244711 l 3.13423,-3.469519 c 0.60719,-0.67154 1.69603,-0.776255 2.42019,-0.232401 l 4.08203,3.687642 c 0.61429,0.665445 0.6207,1.758793 0.013,2.431331 l -3.13424,3.469032 c -0.6072,0.672026 -0.81126,1.750324 -0.45279,2.396219 0.35798,0.645917 1.82035,2.432421 2.72482,2.386568 z" /></svg>